External Loads File
version=1
nRows=69
nColumns=13
Range=5.000000e-03-10 seconds
endheader
time 	forceRightX 	forceRightY 	forceRightZ 	pointRightX 	pointRightY 	pointRightZ 	forceLeftX 	forceLeftY 	forceLeftZ 	pointLeftX 	pointLeftY 	pointLeftZ 		
5.005000 -196.575585 674.640330 -0.000000 0.503464 0.342307 -0.194426 34.962111 -26.576865 -0.000000 0.170552 0.309524 -0.441814
5.010000 -197.861246 686.069420 -0.000000 0.505146 0.331263 -0.194316 33.082801 -24.625231 -0.000000 0.170670 0.320581 -0.441780
5.015000 -197.720580 695.472527 -0.000000 0.506124 0.320344 -0.194541 31.750887 -22.746572 -0.000000 0.171279 0.331629 -0.441740
5.020000 -195.632456 703.675570 -0.000000 0.506590 0.309478 -0.194999 30.716956 -21.130418 -0.000000 0.172539 0.342714 -0.441644
5.025000 -189.280451 711.725605 -0.000000 0.506313 0.297825 -0.195082 29.660842 -19.964720 -0.000000 0.174570 0.353875 -0.441874
5.030000 -182.902104 718.585218 -0.000000 0.504968 0.287099 -0.194859 28.503356 -19.110386 -0.000000 0.177112 0.364765 -0.441691
5.035000 -174.104942 724.794491 -0.000000 0.502834 0.276688 -0.194686 27.064755 -18.732248 -0.000000 0.180136 0.375783 -0.441416
5.040000 -162.918860 730.122433 -0.000000 0.500012 0.266304 -0.194775 25.277561 -18.936956 -0.000000 0.183954 0.386461 -0.441325
5.045000 -149.977938 734.186649 -0.000000 0.496139 0.256250 -0.194518 23.107088 -19.839610 -0.000000 0.188170 0.396921 -0.441259
5.050000 -135.438625 736.723755 -0.000000 0.491546 0.246476 -0.194508 20.530517 -21.596464 -0.000000 0.192913 0.407084 -0.441094
5.055000 -119.730283 737.452343 -0.000000 0.486183 0.237134 -0.194656 17.533377 -24.360344 -0.000000 0.198163 0.416958 -0.440921
5.060000 -102.507184 736.288386 -0.000000 0.480129 0.228048 -0.194900 14.070875 -28.275389 -0.000000 0.204068 0.426598 -0.440804
5.065000 -84.961495 732.971334 -0.000000 0.473412 0.219413 -0.195065 10.155271 -33.400227 -0.000000 0.210509 0.435784 -0.440523
5.070000 -67.146759 727.448443 -0.000000 0.465786 0.211171 -0.195857 5.760733 -39.755307 -0.000000 0.217288 0.444539 -0.440695
5.075000 -49.707645 719.610044 -0.000000 0.457785 0.203442 -0.196428 0.888898 -47.299344 -0.000000 0.224343 0.453065 -0.440139
5.080000 -32.913632 709.408853 -0.000000 0.449131 0.196172 -0.196780 -4.481415 -55.958375 -0.000000 0.231954 0.460592 -0.440062
5.085000 -16.253357 696.826596 -0.000000 0.439960 0.189398 -0.196937 -10.461289 -65.579431 -0.000000 0.239875 0.467839 -0.440144
5.090000 -0.236406 681.780588 -0.000000 0.430437 0.183138 -0.197175 -17.107457 -75.867594 -0.000000 0.248024 0.474482 -0.439787
5.095000 15.109486 664.202683 -0.000000 0.420223 0.177521 -0.197248 -24.498074 -86.348818 -0.000000 0.256481 0.480376 -0.439511
5.100000 30.337916 643.989285 -0.000000 0.409708 0.172439 -0.196894 -32.724670 -96.372959 -0.000000 0.265441 0.485897 -0.439638
5.105000 44.958199 621.094924 -0.000000 0.398929 0.168149 -0.196616 -41.610243 -105.230836 -0.000000 0.274541 0.491099 -0.439457
5.110000 58.550327 595.608681 -0.000000 0.388045 0.164522 -0.196257 -50.806425 -112.244954 -0.000000 0.283952 0.495180 -0.439365
5.115000 72.099530 567.589827 -0.000000 0.376792 0.161567 -0.195996 -60.118043 -116.760522 -0.000000 0.293813 0.498656 -0.439056
5.120000 84.596906 537.370336 -0.000000 0.365474 0.159245 -0.195858 -68.908175 -118.486575 -0.000000 0.303463 0.501447 -0.439064
5.125000 96.322468 505.197008 -0.000000 0.353860 0.157738 -0.195617 -76.770879 -117.199389 -0.000000 0.313334 0.502644 -0.439026
5.130000 107.568382 471.266806 -0.000000 0.341963 0.156938 -0.195257 -83.396142 -112.771868 -0.000000 0.323253 0.504781 -0.439040
5.135000 117.378319 436.019817 -0.000000 0.330002 0.156791 -0.194812 -88.324199 -105.340672 -0.000000 0.332873 0.505412 -0.439442
5.140000 125.679960 399.737558 -0.000000 0.317754 0.157454 -0.194123 -91.510408 -94.904072 -0.000000 0.342324 0.505096 -0.439365
5.145000 131.934908 362.867136 -0.000000 0.305427 0.158841 -0.193665 -93.088570 -81.501266 -0.000000 0.351343 0.504105 -0.439623
5.150000 135.962785 325.822384 -0.000000 0.293074 0.160932 -0.193112 -93.582093 -64.987660 -0.000000 0.359859 0.502509 -0.440086
5.155000 137.969199 288.917011 -0.000000 0.280768 0.163623 -0.192633 -93.794970 -44.956369 -0.000000 0.368088 0.500059 -0.440388
5.160000 137.813341 252.664731 -0.000000 0.268605 0.167051 -0.191933 -94.527632 -20.967618 -0.000000 0.375870 0.496924 -0.440837
5.165000 135.876275 217.360484 -0.000000 0.256700 0.171010 -0.191359 -96.585414 7.628052 -0.000000 0.383382 0.492882 -0.441339
5.170000 132.406434 183.345717 -0.000000 0.245012 0.175702 -0.190889 -100.529963 41.295612 -0.000000 0.390271 0.487973 -0.441652
5.175000 128.034625 150.632846 -0.000000 0.233840 0.181150 -0.190451 -106.456991 80.350821 -0.000000 0.396969 0.481944 -0.442265
5.180000 123.089029 119.289530 -0.000000 0.222705 0.187147 -0.190401 -113.832171 124.540831 -0.000000 0.403744 0.474993 -0.443274
5.185000 117.223068 90.032463 -0.000000 0.212321 0.193653 -0.190090 -122.479660 172.435325 -0.000000 0.409779 0.467693 -0.443650
5.190000 110.673827 63.165230 -0.000000 0.202910 0.200576 -0.189877 -132.320006 222.446115 -0.000000 0.414992 0.460287 -0.444048
5.195000 103.829621 38.575056 -0.000000 0.194029 0.207937 -0.189394 -142.711439 273.293321 -0.000000 0.420072 0.452210 -0.444561
5.200000 96.719441 16.299600 -0.000000 0.185650 0.215862 -0.188986 -153.062265 323.674015 -0.000000 0.425415 0.443357 -0.444927
5.205000 89.216784 -3.307120 -0.000000 0.177936 0.224242 -0.188979 -163.793038 371.941479 -0.000000 0.430772 0.434257 -0.444888
5.210000 81.296344 -20.122926 -0.000000 0.170840 0.232916 -0.188722 -174.730094 416.890566 -0.000000 0.436284 0.424800 -0.444840
5.215000 72.945037 -34.061744 -0.000000 0.164376 0.242055 -0.188627 -185.420974 457.599382 -0.000000 0.441594 0.414942 -0.444835
5.220000 64.322277 -44.910568 -0.000000 0.158328 0.251301 -0.188601 -196.612264 493.031343 -0.000000 0.446107 0.404934 -0.444742
5.225000 55.574312 -52.805674 -0.000000 0.153150 0.260747 -0.188778 -207.549441 523.309004 -0.000000 0.450467 0.394900 -0.444705
5.230000 46.890337 -57.922320 -0.000000 0.149080 0.270425 -0.189002 -217.409520 549.121451 -0.000000 0.455069 0.384443 -0.444747
5.235000 38.733602 -60.359735 -0.000000 0.145001 0.280269 -0.189277 -227.382374 570.743364 -0.000000 0.458793 0.373876 -0.444796
5.240000 31.415718 -60.501817 -0.000000 0.141699 0.290240 -0.189524 -237.150798 589.203656 -0.000000 0.462092 0.363238 -0.444723
5.245000 25.147753 -58.826016 -0.000000 0.139150 0.300558 -0.189778 -246.082806 605.655155 -0.000000 0.465080 0.352534 -0.444599
5.250000 20.126980 -55.826429 -0.000000 0.137004 0.310940 -0.190184 -254.490122 620.782206 -0.000000 0.467388 0.341757 -0.444553
5.255000 16.286306 -52.059186 -0.000000 0.135965 0.321644 -0.190396 -261.398286 635.645070 -0.000000 0.469374 0.330886 -0.444207
5.260000 13.524192 -47.963285 -0.000000 0.135571 0.332335 -0.190570 -267.157677 650.544552 -0.000000 0.470580 0.319997 -0.444247
5.265000 11.518843 -43.900050 -0.000000 0.135804 0.343194 -0.190843 -270.732795 666.101880 -0.000000 0.471269 0.309009 -0.444813
5.270000 9.988157 -40.112656 -0.000000 0.137225 0.354000 -0.191463 -272.042764 682.299406 -0.000000 0.471054 0.298011 -0.444531
5.275000 8.617022 -36.790297 -0.000000 0.139267 0.364804 -0.191951 -270.618408 699.002569 -0.000000 0.470423 0.287007 -0.444592
5.280000 7.120989 -34.077930 -0.000000 0.141933 0.375504 -0.192750 -266.620864 715.561502 -0.000000 0.469002 0.276229 -0.444690
5.285000 5.190001 -32.115520 -0.000000 0.145636 0.386308 -0.193432 -259.212512 731.545583 -0.000000 0.466912 0.265754 -0.444745
5.290000 2.673724 -31.027534 -0.000000 0.149892 0.396659 -0.194127 -249.479920 745.824627 -0.000000 0.464133 0.255505 -0.444779
5.295000 -0.589451 -30.967140 -0.000000 0.154963 0.406876 -0.194853 -236.523895 758.107885 -0.000000 0.460713 0.245441 -0.444810
5.300000 -4.628329 -32.081843 -0.000000 0.160643 0.416811 -0.195668 -221.176189 767.700622 -0.000000 0.456683 0.235647 -0.444907
5.305000 -9.446633 -34.497633 -0.000000 0.167168 0.426422 -0.196356 -203.545500 774.321699 -0.000000 0.452105 0.226155 -0.444961
5.310000 -14.980411 -38.308768 -0.000000 0.174362 0.435791 -0.197062 -184.131564 777.716705 -0.000000 0.446998 0.217061 -0.445033
5.315000 -21.130422 -43.576985 -0.000000 0.182161 0.444692 -0.197794 -163.350311 777.807267 -0.000000 0.441294 0.208286 -0.445140
5.320000 -27.677272 -50.367656 -0.000000 0.189759 0.453232 -0.199890 -142.940430 774.434028 -0.000000 0.435081 0.200006 -0.445127
5.325000 -34.639598 -58.549430 -0.000000 0.198803 0.461377 -0.200453 -120.521666 768.351578 -0.000000 0.428401 0.192245 -0.445155
5.330000 -42.053962 -67.879451 -0.000000 0.209747 0.469033 -0.199429 -95.287010 759.834624 -0.000000 0.421205 0.184975 -0.445132
5.335000 -49.481180 -78.309482 -0.000000 0.219699 0.476192 -0.200093 -72.381547 748.394845 -0.000000 0.413558 0.178202 -0.445057
5.340000 -57.022496 -89.321835 -0.000000 0.229761 0.482859 -0.200064 -50.359662 734.482850 -0.000000 0.405476 0.172190 -0.445040
5.345000 -64.817602 -100.206846 -0.000000 0.240416 0.489015 -0.200887 -28.237531 718.234852 -0.000000 0.397054 0.166625 -0.444966
